) (`-.                           (` .-') /`           ) (`-.
       ( OO ).                          `.( OO ),'            ( OO ).
      (_/.  _)-.-'),-----. ,--.     ,--./  .--.  .-'),-----.(_/.  _)-.
         `.'  ( OO'  .-.  '|  |.-') |      |  | ( OO'  .-.  '  `.'  /
             /Y   |  | |  ||  | OO )|  |   |  |,/   |  | |  |      /
             _) |  ||  ||  |`-' ||  |.'.|  |_)_) |  ||  |      |
        .'    _) |  | |  (|  '---.'|         |    |  | |  | .'    _)
       /  .'.    `'  '-'  '|      | |   ,'.   |    `'  '-'  '/  .'.  
      '--'   '--'   `-----' `------' '--'   '--'      `-----''--'   '--'


      ΓûÇΓûÇΓûÇΓûÇΓûÇΓûÇΓûÇΓûÇΓûÇΓûÇΓûÇΓûÇΓûÇΓûÇΓûÇΓûÇΓûÇΓûÇΓûÇΓûÇΓûÇΓûÇΓûÇΓûÇΓûÇΓûÇΓûÇΓûÇΓûÇΓûÇΓûÇΓûÇΓûÇΓûÇΓûÇΓûÇΓûÇΓûÇΓûÇΓûÇΓûÇΓûÇΓûÇΓûÇΓûÇΓûÇΓûÇΓûÇΓûÇΓûÇΓûÇΓûÇΓûÇΓûÇΓûÇΓûÇΓûÇΓûÇΓûÇΓûÇΓûÇΓûÇΓûÇΓûÇΓûÇΓûÇΓûÇΓûÇΓûÇΓûÇ

                    ΓûêΓûæΓûæΓûæΓûæΓûæΓûæΓûæΓûæΓûæΓûæΓûæΓûæΓûæΓûæΓûæΓûæΓûæΓûæΓûæΓûæΓûæΓûæΓûæΓûæΓûæΓûæΓûæΓûæΓûæΓûê
                   ΓûêΓûê The HangOver[2009]DvDrip-LW ΓûêΓûê
                    ΓûêΓûæΓûæΓûæΓûæΓûæΓûæΓûæΓûæΓûæΓûæΓûæΓûæΓûæΓûæΓûæΓûæΓûæΓûæΓûæΓûæΓûæΓûæΓûæΓûæΓûæΓûæΓûæΓûæΓûæΓûê

File Name    : The HangOver[2009]DvDrip-LW
Type         : Movie
Format       : AVI
File Size    : 699 MB
Duration     : 01:35:43
Language     : English
Source       : DvD
Subtitles    : None
Genre        : Comedy
IMDB Link    : http://www.imdb.com/title/tt1119646/
IMDB Rating  : 8.1/10
IMDB Votes   : 76,400 Votes
     ΓûäΓûäΓûäΓûäΓûäΓûäΓûäΓûäΓûäΓûäΓûäΓûäΓûäΓûäΓûäΓûäΓûäΓûäΓûäΓûäΓûäΓûäΓûäΓûäΓûäΓûäΓûäΓûäΓûäΓûäΓûäΓûäΓûäΓûäΓûäΓûäΓûäΓûäΓûäΓûäΓûäΓûäΓûäΓûäΓûäΓûäΓûäΓûäΓûäΓûäΓûäΓûäΓûäΓûäΓûäΓûäΓûäΓûäΓûäΓûäΓûäΓûäΓûäΓûäΓûäΓûäΓûäΓûäΓûäΓûä
 
                        ΓûêΓûæΓûæΓûæΓûæΓûæΓûæΓûæΓûæΓûæΓûæΓûæΓûæΓûæΓûæΓûæΓûæΓûæΓûæΓûæΓûæΓûæΓûæΓûæΓûæΓûê
                       ΓûêΓûê       Video Info       ΓûêΓûê
                        ΓûêΓûæΓûæΓûæΓûæΓûæΓûæΓûæΓûæΓûæΓûæΓûæΓûæΓûæΓûæΓûæΓûæΓûæΓûæΓûæΓûæΓûæΓûæΓûæΓûæΓûê

Format                           : MPEG-4 Visual
Format profile                   : Streaming Video@L1
Format settings, BVOP            : Yes
Format settings, QPel            : No
Format settings, GMC             : No warppoints
Format settings, Matrix          : Default (H.263)
Codec ID                         : XVID
Codec ID/Hint                    : XviD
Duration                         : 1h 35mn
Bit rate                         : 879 Kbps
Width                            : 640 pixels
Height                           : 272 pixels
Display aspect ratio             : 2.35
Frame rate                       : 25.000 fps
Resolution                       : 24 bits
Colorimetry                      : 4:2:0
Scan type                        : Progressive
Bits/(Pixel*Frame)               : 0.202
Stream size                      : 602 MiB (86%)
Writing library                  : XviD 1.2.1
     ΓûäΓûäΓûäΓûäΓûäΓûäΓûäΓûäΓûäΓûäΓûäΓûäΓûäΓûäΓûäΓûäΓûäΓûäΓûäΓûäΓûäΓûäΓûäΓûäΓûäΓûäΓûäΓûäΓûäΓûäΓûäΓûäΓûäΓûäΓûäΓûäΓûäΓûäΓûäΓûäΓûäΓûäΓûäΓûäΓûäΓûäΓûäΓûäΓûäΓûäΓûäΓûäΓûäΓûäΓûäΓûäΓûäΓûäΓûäΓûäΓûäΓûäΓûäΓûäΓûäΓûäΓûäΓûäΓûäΓûä

                         ΓûêΓûæΓûæΓûæΓûæΓûæΓûæΓûæΓûæΓûæΓûæΓûæΓûæΓûæΓûæΓûæΓûæΓûæΓûæΓûæΓûæΓûæΓûæΓûæΓûæΓûê
                        ΓûêΓûê      Sound Info        ΓûêΓûê
                         ΓûêΓûæΓûæΓûæΓûæΓûæΓûæΓûæΓûæΓûæΓûæΓûæΓûæΓûæΓûæΓûæΓûæΓûæΓûæΓûæΓûæΓûæΓûæΓûæΓûæΓûê

Format                           : MPEG Audio
Format version                   : Version 1
Format profile                   : Layer 3
Codec ID                         : 55
Codec ID/Hint                    : MP3
Duration                         : 1h 35mn
Bit rate mode                    : Variable
Bit rate                         : 130 Kbps
Channel(s)                       : 2 channels
Sampling rate                    : 48.0 KHz
Resolution                       : 16 bits
Stream size                      : 89.1 MiB (13%)
Alignment                        : Aligned on interleaves
Interleave, duration             : 24 ms (0.60 video frame)
Interleave, preload duration     : 423 ms
    ΓûäΓûäΓûäΓûäΓûäΓûäΓûäΓûäΓûäΓûäΓûäΓûäΓûäΓûäΓûäΓûäΓûäΓûäΓûäΓûäΓûäΓûäΓûäΓûäΓûäΓûäΓûäΓûäΓûäΓûäΓûäΓûäΓûäΓûäΓûäΓûäΓûäΓûäΓûäΓûäΓûäΓûäΓûäΓûäΓûäΓûäΓûäΓûäΓûäΓûäΓûäΓûäΓûäΓûäΓûäΓûäΓûäΓûäΓûäΓûäΓûäΓûäΓûäΓûäΓûäΓûäΓûäΓûäΓûäΓûä

                          ΓûêΓûæΓûæΓûæΓûæΓûæΓûæΓûæΓûæΓûæΓûæΓûæΓûæΓûæΓûæΓûæΓûæΓûæΓûæΓûæΓûæΓûæΓûæΓûæΓûæΓûê
                         ΓûêΓûê          Plot          ΓûêΓûê
                          ΓûêΓûæΓûæΓûæΓûæΓûæΓûæΓûæΓûæΓûæΓûæΓûæΓûæΓûæΓûæΓûæΓûæΓûæΓûæΓûæΓûæΓûæΓûæΓûæΓûæΓûê

When three friends (Ed Helms, Zach Galifianakis and 
Bradley Cooper) finally come to after a raucous night 
of bachelor-party revelry, they find a baby in the 
closet and a tiger in the bathroom. But they can't 
seem to locate their best friend, Doug (Justin Bartha) -- 
who's supposed to be tying the knot. Launching a frantic 
search for Doug, the trio perseveres through a nasty 
hangover to try to make it to the church on time.

Starring: Bradley Cooper, Ed Helms

Director: Todd Phillips
    ΓûäΓûäΓûäΓûäΓûäΓûäΓûäΓûäΓûäΓûäΓûäΓûäΓûäΓûäΓûäΓûäΓûäΓûäΓûäΓûäΓûäΓûäΓûäΓûäΓûäΓûäΓûäΓûäΓûäΓûäΓûäΓûäΓûäΓûäΓûäΓûäΓûäΓûäΓûäΓûäΓûäΓûäΓûäΓûäΓûäΓûäΓûäΓûäΓûäΓûäΓûäΓûäΓûäΓûäΓûäΓûäΓûäΓûäΓûäΓûäΓûäΓûäΓûäΓûäΓûäΓûäΓûäΓûäΓûäΓûä

ScreenShots 
http://imgshack.info/images/qkwl6z63r4hbhpc8ouxp.png 
http://imgshack.info/images/o3dphux3wclnjqdj43q.png 
http://imgshack.info/images/fmh0pfcwtxr3r5k57bvb.png 
http://imgshack.info/images/fodfmx8fz9zhqgq0fpj.jpg
